<svg xmlns="http://www.w3.org/2000/svg" width="32" height="32" fill="none"><g clip-path="url('#clip0_41317_275')"><path fill="#fff" d="M26.68 20.507c-1.64 0-3.227-.267-4.707-.747a1.3 1.3 0 0 0-1.346.32l-2.094 2.627c-3.773-1.8-7.306-5.2-9.186-9.107l2.6-2.213c.36-.374.466-.894.32-1.36a14.9 14.9 0 0 1-.747-4.707c0-.72-.6-1.32-1.32-1.32H5.587C4.867 4 4 4.32 4 5.32 4 17.707 14.307 28 26.68 28c.947 0 1.32-.84 1.32-1.573v-4.6c0-.72-.6-1.32-1.32-1.32"/></g><defs><clipPath id="clip0_41317_275"><path fill="#fff" d="M0 0h32v32H0z"/></clipPath></defs></svg>