<svg xmlns="http://www.w3.org/2000/svg" width="130" height="38" fill="none"><path fill="#1D1D1D" d="M29.411 3.53v25.024h-6.326V13.546l-5.808 15.008H12.17L6.326 13.51v15.044H0V3.529h7.473l7.288 17.325 7.214-17.325zM54.18 8.662 41.232 38h-6.807l4.735-10.124-8.397-19.214h7.066L42.6 21.103l4.735-12.44zM71.324 15.72q2.256.464 3.625 2.175a5.9 5.9 0 0 1 1.37 3.85q0 3.137-2.294 4.99-2.257 1.82-6.327 1.819H55.601V3.529h11.69q3.96 0 6.179 1.747 2.256 1.747 2.256 4.74 0 2.21-1.22 3.673-1.184 1.461-3.182 2.031m-9.397-2.067h4.143q1.555 0 2.368-.642.85-.677.851-1.96 0-1.284-.85-1.96-.815-.678-2.368-.678h-4.144zm4.661 9.981q1.591 0 2.442-.677.888-.713.888-2.032 0-1.32-.925-2.068-.888-.748-2.478-.748h-4.588v5.525zM82.302 6.595q-1.665 0-2.738-.927-1.035-.963-1.036-2.353 0-1.425 1.036-2.353Q80.637 0 82.302 0q1.628 0 2.663.962 1.073.928 1.073 2.353 0 1.39-1.072 2.353-1.037.927-2.664.927m3.144 2.067v19.892H79.12V8.662zM104.221 28.554 95.49 17.502v11.05h-6.326V3.53h6.326v10.98l8.657-10.98h7.436L101.52 15.792l10.433 12.762zM120.418 8.413v5.062h8.472v4.705h-8.472v5.49H130v4.883h-15.908V3.53H130v4.884z"/></svg>